  0
SECTION
  2
HEADER
  9
$ACADVER
  1
AC1009
  9
$MEASUREMENT
 70
     1
  0
ENDSEC
  0
SECTION
  2
ENTITIES
  0
LWPOLYLINE
  8
0
 62
7
 90
5
 70
1
 10
83.516000
 20
7.000000
 10
83.516000
 20
6.350000
 10
84.516000
 20
6.350000
 10
84.516000
 20
7.650000
 10
83.516000
 20
7.650000
  0
LWPOLYLINE
  8
0
 62
7
 90
5
 70
1
 10
81.484000
 20
7.000000
 10
81.484000
 20
6.350000
 10
82.484000
 20
6.350000
 10
82.484000
 20
7.650000
 10
81.484000
 20
7.650000
  0
LWPOLYLINE
  8
0
 62
7
 90
5
 70
1
 10
78.484000
 20
7.000000
 10
78.484000
 20
7.650000
 10
77.484000
 20
7.650000
 10
77.484000
 20
6.350000
 10
78.484000
 20
6.350000
  0
LWPOLYLINE
  8
0
 62
7
 90
5
 70
1
 10
80.516000
 20
7.000000
 10
80.516000
 20
7.650000
 10
79.516000
 20
7.650000
 10
79.516000
 20
6.350000
 10
80.516000
 20
6.350000
  0
LWPOLYLINE
  8
0
 62
7
 90
5
 70
1
 10
65.484000
 20
13.000000
 10
65.484000
 20
13.650000
 10
64.484000
 20
13.650000
 10
64.484000
 20
12.350000
 10
65.484000
 20
12.350000
  0
LWPOLYLINE
  8
0
 62
7
 90
5
 70
1
 10
67.516000
 20
13.000000
 10
67.516000
 20
13.650000
 10
66.516000
 20
13.650000
 10
66.516000
 20
12.350000
 10
67.516000
 20
12.350000
  0
LWPOLYLINE
  8
0
 62
7
 90
5
 70
1
 10
56.484000
 20
8.000000
 10
56.484000
 20
8.650000
 10
55.484000
 20
8.650000
 10
55.484000
 20
7.350000
 10
56.484000
 20
7.350000
  0
LWPOLYLINE
  8
0
 62
7
 90
5
 70
1
 10
58.516000
 20
8.000000
 10
58.516000
 20
8.650000
 10
57.516000
 20
8.650000
 10
57.516000
 20
7.350000
 10
58.516000
 20
7.350000
  0
LWPOLYLINE
  8
0
 62
7
 90
5
 70
1
 10
49.516000
 20
8.000000
 10
49.516000
 20
7.350000
 10
50.516000
 20
7.350000
 10
50.516000
 20
8.650000
 10
49.516000
 20
8.650000
  0
LWPOLYLINE
  8
0
 62
7
 90
5
 70
1
 10
47.484000
 20
8.000000
 10
47.484000
 20
7.350000
 10
48.484000
 20
7.350000
 10
48.484000
 20
8.650000
 10
47.484000
 20
8.650000
  0
LWPOLYLINE
  8
0
 62
7
 90
5
 70
1
 10
34.484000
 20
13.000000
 10
34.484000
 20
13.650000
 10
33.484000
 20
13.650000
 10
33.484000
 20
12.350000
 10
34.484000
 20
12.350000
  0
LWPOLYLINE
  8
0
 62
7
 90
5
 70
1
 10
36.516000
 20
13.000000
 10
36.516000
 20
13.650000
 10
35.516000
 20
13.650000
 10
35.516000
 20
12.350000
 10
36.516000
 20
12.350000
  0
LWPOLYLINE
  8
0
 62
7
 90
5
 70
1
 10
2.200000
 20
6.000000
 10
2.200000
 20
5.400000
 10
5.000000
 20
5.400000
 10
5.000000
 20
6.600000
 10
2.200000
 20
6.600000
  0
LWPOLYLINE
  8
0
 62
7
 90
5
 70
1
 10
7.000000
 20
6.000000
 10
7.000000
 20
5.400000
 10
9.800000
 20
5.400000
 10
9.800000
 20
6.600000
 10
7.000000
 20
6.600000
  0
LWPOLYLINE
  8
0
 62
7
 90
5
 70
1
 10
88.516000
 20
23.000000
 10
88.516000
 20
22.350000
 10
89.516000
 20
22.350000
 10
89.516000
 20
23.650000
 10
88.516000
 20
23.650000
  0
LWPOLYLINE
  8
0
 62
7
 90
5
 70
1
 10
86.484000
 20
23.000000
 10
86.484000
 20
22.350000
 10
87.484000
 20
22.350000
 10
87.484000
 20
23.650000
 10
86.484000
 20
23.650000
  0
LWPOLYLINE
  8
0
 62
7
 90
5
 70
1
 10
54.516000
 20
24.000000
 10
54.516000
 20
23.350000
 10
55.516000
 20
23.350000
 10
55.516000
 20
24.650000
 10
54.516000
 20
24.650000
  0
LWPOLYLINE
  8
0
 62
7
 90
5
 70
1
 10
52.484000
 20
24.000000
 10
52.484000
 20
23.350000
 10
53.484000
 20
23.350000
 10
53.484000
 20
24.650000
 10
52.484000
 20
24.650000
  0
LWPOLYLINE
  8
0
 62
7
 90
5
 70
1
 10
42.200000
 20
24.516000
 10
42.850000
 20
24.516000
 10
42.850000
 20
25.516000
 10
41.550000
 20
25.516000
 10
41.550000
 20
24.516000
  0
LWPOLYLINE
  8
0
 62
7
 90
5
 70
1
 10
42.200000
 20
22.484000
 10
42.850000
 20
22.484000
 10
42.850000
 20
23.484000
 10
41.550000
 20
23.484000
 10
41.550000
 20
22.484000
  0
LWPOLYLINE
  8
0
 62
7
 90
5
 70
1
 10
31.000000
 20
20.484000
 10
30.350000
 20
20.484000
 10
30.350000
 20
19.484000
 10
31.650000
 20
19.484000
 10
31.650000
 20
20.484000
  0
LWPOLYLINE
  8
0
 62
7
 90
5
 70
1
 10
31.000000
 20
22.516000
 10
30.350000
 20
22.516000
 10
30.350000
 20
21.516000
 10
31.650000
 20
21.516000
 10
31.650000
 20
22.516000
  0
LWPOLYLINE
  8
0
 62
7
 90
5
 70
1
 10
39.000000
 20
27.484000
 10
38.350000
 20
27.484000
 10
38.350000
 20
26.484000
 10
39.650000
 20
26.484000
 10
39.650000
 20
27.484000
  0
LWPOLYLINE
  8
0
 62
7
 90
5
 70
1
 10
39.000000
 20
29.516000
 10
38.350000
 20
29.516000
 10
38.350000
 20
28.516000
 10
39.650000
 20
28.516000
 10
39.650000
 20
29.516000
  0
LWPOLYLINE
  8
0
 62
7
 90
5
 70
1
 10
23.000000
 20
33.800000
 10
22.400000
 20
33.800000
 10
22.400000
 20
31.000000
 10
23.600000
 20
31.000000
 10
23.600000
 20
33.800000
  0
LWPOLYLINE
  8
0
 62
7
 90
5
 70
1
 10
23.000000
 20
29.000000
 10
22.400000
 20
29.000000
 10
22.400000
 20
26.200000
 10
23.600000
 20
26.200000
 10
23.600000
 20
29.000000
  0
LWPOLYLINE
  8
0
 62
7
 90
5
 70
1
 10
18.000000
 20
30.516000
 10
18.650000
 20
30.516000
 10
18.650000
 20
31.516000
 10
17.350000
 20
31.516000
 10
17.350000
 20
30.516000
  0
LWPOLYLINE
  8
0
 62
7
 90
5
 70
1
 10
18.000000
 20
28.484000
 10
18.650000
 20
28.484000
 10
18.650000
 20
29.484000
 10
17.350000
 20
29.484000
 10
17.350000
 20
28.484000
  0
LWPOLYLINE
  8
0
 62
7
 90
5
 70
1
 10
17.400000
 20
14.150000
 10
17.400000
 20
13.550000
 10
18.600000
 20
13.550000
 10
18.600000
 20
14.750000
 10
17.400000
 20
14.750000
  0
LWPOLYLINE
  8
0
 62
7
 90
5
 70
1
 10
17.400000
 20
17.850000
 10
17.400000
 20
17.250000
 10
18.600000
 20
17.250000
 10
18.600000
 20
18.450000
 10
17.400000
 20
18.450000
  0
LWPOLYLINE
  8
0
 62
7
 90
5
 70
1
 10
35.550000
 20
28.900000
 10
35.550000
 20
28.300000
 10
36.350000
 20
28.300000
 10
36.350000
 20
29.500000
 10
35.550000
 20
29.500000
  0
LWPOLYLINE
  8
0
 62
7
 90
5
 70
1
 10
33.650000
 20
28.900000
 10
33.650000
 20
28.300000
 10
34.450000
 20
28.300000
 10
34.450000
 20
29.500000
 10
33.650000
 20
29.500000
  0
LWPOLYLINE
  8
0
 62
7
 90
5
 70
1
 10
34.600000
 20
31.100000
 10
34.600000
 20
30.500000
 10
35.400000
 20
30.500000
 10
35.400000
 20
31.700000
 10
34.600000
 20
31.700000
  0
LWPOLYLINE
  8
0
 62
7
 90
5
 70
1
 10
18.000000
 20
21.862000
 10
18.789000
 20
21.862000
 10
18.789000
 20
22.932000
 10
17.211000
 20
22.932000
 10
17.211000
 20
21.862000
  0
LWPOLYLINE
  8
0
 62
7
 90
5
 70
1
 10
18.000000
 20
19.068000
 10
18.789000
 20
19.068000
 10
18.789000
 20
20.138000
 10
17.211000
 20
20.138000
 10
17.211000
 20
19.068000
  0
LWPOLYLINE
  8
0
 62
7
 90
5
 70
1
 10
43.750000
 20
16.694000
 10
43.750000
 20
16.194000
 10
44.150000
 20
16.194000
 10
44.150000
 20
17.194000
 10
43.750000
 20
17.194000
  0
LWPOLYLINE
  8
0
 62
7
 90
5
 70
1
 10
42.800000
 20
16.694000
 10
42.800000
 20
16.194000
 10
43.200000
 20
16.194000
 10
43.200000
 20
17.194000
 10
42.800000
 20
17.194000
  0
LWPOLYLINE
  8
0
 62
7
 90
5
 70
1
 10
41.850000
 20
16.694000
 10
41.850000
 20
16.194000
 10
42.250000
 20
16.194000
 10
42.250000
 20
17.194000
 10
41.850000
 20
17.194000
  0
LWPOLYLINE
  8
0
 62
7
 90
5
 70
1
 10
41.850000
 20
19.306000
 10
41.850000
 20
18.806000
 10
42.250000
 20
18.806000
 10
42.250000
 20
19.806000
 10
41.850000
 20
19.806000
  0
LWPOLYLINE
  8
0
 62
7
 90
5
 70
1
 10
43.750000
 20
19.306000
 10
43.750000
 20
18.806000
 10
44.150000
 20
18.806000
 10
44.150000
 20
19.806000
 10
43.750000
 20
19.806000
  0
LWPOLYLINE
  8
0
 62
7
 90
5
 70
1
 10
34.295000
 20
20.600000
 10
34.295000
 20
21.600000
 10
33.895000
 20
21.600000
 10
33.895000
 20
19.600000
 10
34.295000
 20
19.600000
  0
LWPOLYLINE
  8
0
 62
7
 90
5
 70
1
 10
35.565000
 20
20.600000
 10
35.565000
 20
21.600000
 10
35.165000
 20
21.600000
 10
35.165000
 20
19.600000
 10
35.565000
 20
19.600000
  0
LWPOLYLINE
  8
0
 62
7
 90
5
 70
1
 10
36.835000
 20
20.600000
 10
36.835000
 20
21.600000
 10
36.435000
 20
21.600000
 10
36.435000
 20
19.600000
 10
36.835000
 20
19.600000
  0
LWPOLYLINE
  8
0
 62
7
 90
5
 70
1
 10
38.105000
 20
20.600000
 10
38.105000
 20
21.600000
 10
37.705000
 20
21.600000
 10
37.705000
 20
19.600000
 10
38.105000
 20
19.600000
  0
LWPOLYLINE
  8
0
 62
7
 90
5
 70
1
 10
38.105000
 20
15.400000
 10
38.105000
 20
16.400000
 10
37.705000
 20
16.400000
 10
37.705000
 20
14.400000
 10
38.105000
 20
14.400000
  0
LWPOLYLINE
  8
0
 62
7
 90
5
 70
1
 10
36.835000
 20
15.400000
 10
36.835000
 20
16.400000
 10
36.435000
 20
16.400000
 10
36.435000
 20
14.400000
 10
36.835000
 20
14.400000
  0
LWPOLYLINE
  8
0
 62
7
 90
5
 70
1
 10
35.565000
 20
15.400000
 10
35.565000
 20
16.400000
 10
35.165000
 20
16.400000
 10
35.165000
 20
14.400000
 10
35.565000
 20
14.400000
  0
LWPOLYLINE
  8
0
 62
7
 90
5
 70
1
 10
34.295000
 20
15.400000
 10
34.295000
 20
16.400000
 10
33.895000
 20
16.400000
 10
33.895000
 20
14.400000
 10
34.295000
 20
14.400000
  0
LWPOLYLINE
  8
0
 62
7
 90
5
 70
1
 10
5.200000
 20
28.120000
 10
4.500000
 20
28.120000
 10
4.500000
 20
27.320000
 10
5.900000
 20
27.320000
 10
5.900000
 20
28.120000
  0
LWPOLYLINE
  8
0
 62
7
 90
5
 70
1
 10
5.200000
 20
32.680000
 10
4.500000
 20
32.680000
 10
4.500000
 20
31.880000
 10
5.900000
 20
31.880000
 10
5.900000
 20
32.680000
  0
LWPOLYLINE
  8
0
 62
7
 90
5
 70
1
 10
12.500000
 20
32.600000
 10
9.500000
 20
32.600000
 10
9.500000
 20
27.400000
 10
15.500000
 20
27.400000
 10
15.500000
 20
32.600000
  0
LWPOLYLINE
  8
0
 62
7
 90
5
 70
1
 10
74.000000
 20
25.000000
 10
74.600000
 20
25.000000
 10
74.600000
 20
26.000000
 10
73.400000
 20
26.000000
 10
73.400000
 20
25.000000
  0
LWPOLYLINE
  8
0
 62
7
 90
5
 70
1
 10
74.000000
 20
22.000000
 10
74.600000
 20
22.000000
 10
74.600000
 20
23.000000
 10
73.400000
 20
23.000000
 10
73.400000
 20
22.000000
  0
LWPOLYLINE
  8
0
 62
7
 90
5
 70
1
 10
79.000000
 20
28.484000
 10
78.350000
 20
28.484000
 10
78.350000
 20
27.484000
 10
79.650000
 20
27.484000
 10
79.650000
 20
28.484000
  0
LWPOLYLINE
  8
0
 62
7
 90
5
 70
1
 10
79.000000
 20
30.516000
 10
78.350000
 20
30.516000
 10
78.350000
 20
29.516000
 10
79.650000
 20
29.516000
 10
79.650000
 20
30.516000
  0
LWPOLYLINE
  8
0
 62
7
 90
5
 70
1
 10
18.550000
 20
9.900000
 10
18.550000
 20
9.300000
 10
19.350000
 20
9.300000
 10
19.350000
 20
10.500000
 10
18.550000
 20
10.500000
  0
LWPOLYLINE
  8
0
 62
7
 90
5
 70
1
 10
16.650000
 20
9.900000
 10
16.650000
 20
9.300000
 10
17.450000
 20
9.300000
 10
17.450000
 20
10.500000
 10
16.650000
 20
10.500000
  0
LWPOLYLINE
  8
0
 62
7
 90
5
 70
1
 10
17.600000
 20
12.100000
 10
17.600000
 20
11.500000
 10
18.400000
 20
11.500000
 10
18.400000
 20
12.700000
 10
17.600000
 20
12.700000
  0
LWPOLYLINE
  8
0
 62
7
 90
5
 70
1
 10
87.516000
 20
10.000000
 10
87.516000
 20
9.350000
 10
88.516000
 20
9.350000
 10
88.516000
 20
10.650000
 10
87.516000
 20
10.650000
  0
LWPOLYLINE
  8
0
 62
7
 90
5
 70
1
 10
85.484000
 20
10.000000
 10
85.484000
 20
9.350000
 10
86.484000
 20
9.350000
 10
86.484000
 20
10.650000
 10
85.484000
 20
10.650000
  0
LWPOLYLINE
  8
0
 62
7
 90
5
 70
1
 10
74.484000
 20
10.000000
 10
74.484000
 20
10.650000
 10
73.484000
 20
10.650000
 10
73.484000
 20
9.350000
 10
74.484000
 20
9.350000
  0
LWPOLYLINE
  8
0
 62
7
 90
5
 70
1
 10
76.516000
 20
10.000000
 10
76.516000
 20
10.650000
 10
75.516000
 20
10.650000
 10
75.516000
 20
9.350000
 10
76.516000
 20
9.350000
  0
LWPOLYLINE
  8
0
 62
7
 90
5
 70
1
 10
53.516000
 20
8.000000
 10
53.516000
 20
7.350000
 10
54.516000
 20
7.350000
 10
54.516000
 20
8.650000
 10
53.516000
 20
8.650000
  0
LWPOLYLINE
  8
0
 62
7
 90
5
 70
1
 10
51.484000
 20
8.000000
 10
51.484000
 20
7.350000
 10
52.484000
 20
7.350000
 10
52.484000
 20
8.650000
 10
51.484000
 20
8.650000
  0
LWPOLYLINE
  8
0
 62
7
 90
5
 70
1
 10
45.000000
 20
8.516000
 10
45.650000
 20
8.516000
 10
45.650000
 20
9.516000
 10
44.350000
 20
9.516000
 10
44.350000
 20
8.516000
  0
LWPOLYLINE
  8
0
 62
7
 90
5
 70
1
 10
45.000000
 20
6.484000
 10
45.650000
 20
6.484000
 10
45.650000
 20
7.484000
 10
44.350000
 20
7.484000
 10
44.350000
 20
6.484000
  0
LWPOLYLINE
  8
0
 62
7
 90
5
 70
1
 10
42.000000
 20
7.484000
 10
41.350000
 20
7.484000
 10
41.350000
 20
6.484000
 10
42.650000
 20
6.484000
 10
42.650000
 20
7.484000
  0
LWPOLYLINE
  8
0
 62
7
 90
5
 70
1
 10
42.000000
 20
9.516000
 10
41.350000
 20
9.516000
 10
41.350000
 20
8.516000
 10
42.650000
 20
8.516000
 10
42.650000
 20
9.516000
  0
LWPOLYLINE
  8
0
 62
7
 90
5
 70
1
 10
41.516000
 20
13.000000
 10
41.516000
 20
12.350000
 10
42.516000
 20
12.350000
 10
42.516000
 20
13.650000
 10
41.516000
 20
13.650000
  0
LWPOLYLINE
  8
0
 62
7
 90
5
 70
1
 10
39.484000
 20
13.000000
 10
39.484000
 20
12.350000
 10
40.484000
 20
12.350000
 10
40.484000
 20
13.650000
 10
39.484000
 20
13.650000
  0
LWPOLYLINE
  8
0
 62
7
 90
5
 70
1
 10
38.000000
 20
8.516000
 10
38.650000
 20
8.516000
 10
38.650000
 20
9.516000
 10
37.350000
 20
9.516000
 10
37.350000
 20
8.516000
  0
LWPOLYLINE
  8
0
 62
7
 90
5
 70
1
 10
38.000000
 20
6.484000
 10
38.650000
 20
6.484000
 10
38.650000
 20
7.484000
 10
37.350000
 20
7.484000
 10
37.350000
 20
6.484000
  0
LWPOLYLINE
  8
0
 62
7
 90
5
 70
1
 10
35.000000
 20
8.516000
 10
35.650000
 20
8.516000
 10
35.650000
 20
9.516000
 10
34.350000
 20
9.516000
 10
34.350000
 20
8.516000
  0
LWPOLYLINE
  8
0
 62
7
 90
5
 70
1
 10
35.000000
 20
6.484000
 10
35.650000
 20
6.484000
 10
35.650000
 20
7.484000
 10
34.350000
 20
7.484000
 10
34.350000
 20
6.484000
  0
LWPOLYLINE
  8
0
 62
7
 90
5
 70
1
 10
32.000000
 20
8.516000
 10
32.650000
 20
8.516000
 10
32.650000
 20
9.516000
 10
31.350000
 20
9.516000
 10
31.350000
 20
8.516000
  0
LWPOLYLINE
  8
0
 62
7
 90
5
 70
1
 10
32.000000
 20
6.484000
 10
32.650000
 20
6.484000
 10
32.650000
 20
7.484000
 10
31.350000
 20
7.484000
 10
31.350000
 20
6.484000
  0
LWPOLYLINE
  8
0
 62
7
 90
5
 70
1
 10
21.000000
 20
11.516000
 10
21.650000
 20
11.516000
 10
21.650000
 20
12.516000
 10
20.350000
 20
12.516000
 10
20.350000
 20
11.516000
  0
LWPOLYLINE
  8
0
 62
7
 90
5
 70
1
 10
21.000000
 20
9.484000
 10
21.650000
 20
9.484000
 10
21.650000
 20
10.484000
 10
20.350000
 20
10.484000
 10
20.350000
 20
9.484000
  0
LWPOLYLINE
  8
0
 62
7
 90
5
 70
1
 10
66.516000
 20
15.540000
 10
66.516000
 20
14.890000
 10
67.516000
 20
14.890000
 10
67.516000
 20
16.190000
 10
66.516000
 20
16.190000
  0
LWPOLYLINE
  8
0
 62
7
 90
5
 70
1
 10
64.484000
 20
15.540000
 10
64.484000
 20
14.890000
 10
65.484000
 20
14.890000
 10
65.484000
 20
16.190000
 10
64.484000
 20
16.190000
  0
LWPOLYLINE
  8
0
 62
7
 90
5
 70
1
 10
49.800000
 20
23.484000
 10
49.150000
 20
23.484000
 10
49.150000
 20
22.484000
 10
50.450000
 20
22.484000
 10
50.450000
 20
23.484000
  0
LWPOLYLINE
  8
0
 62
7
 90
5
 70
1
 10
49.800000
 20
25.516000
 10
49.150000
 20
25.516000
 10
49.150000
 20
24.516000
 10
50.450000
 20
24.516000
 10
50.450000
 20
25.516000
  0
LWPOLYLINE
  8
0
 62
7
 90
5
 70
1
 10
47.300000
 20
23.484000
 10
46.650000
 20
23.484000
 10
46.650000
 20
22.484000
 10
47.950000
 20
22.484000
 10
47.950000
 20
23.484000
  0
LWPOLYLINE
  8
0
 62
7
 90
5
 70
1
 10
47.300000
 20
25.516000
 10
46.650000
 20
25.516000
 10
46.650000
 20
24.516000
 10
47.950000
 20
24.516000
 10
47.950000
 20
25.516000
  0
LWPOLYLINE
  8
0
 62
7
 90
5
 70
1
 10
40.000000
 20
18.516000
 10
40.650000
 20
18.516000
 10
40.650000
 20
19.516000
 10
39.350000
 20
19.516000
 10
39.350000
 20
18.516000
  0
LWPOLYLINE
  8
0
 62
7
 90
5
 70
1
 10
40.000000
 20
16.484000
 10
40.650000
 20
16.484000
 10
40.650000
 20
17.484000
 10
39.350000
 20
17.484000
 10
39.350000
 20
16.484000
  0
LWPOLYLINE
  8
0
 62
7
 90
5
 70
1
 10
34.484000
 20
24.000000
 10
34.484000
 20
24.650000
 10
33.484000
 20
24.650000
 10
33.484000
 20
23.350000
 10
34.484000
 20
23.350000
  0
LWPOLYLINE
  8
0
 62
7
 90
5
 70
1
 10
36.516000
 20
24.000000
 10
36.516000
 20
24.650000
 10
35.516000
 20
24.650000
 10
35.516000
 20
23.350000
 10
36.516000
 20
23.350000
  0
LWPOLYLINE
  8
0
 62
7
 90
5
 70
1
 10
89.000000
 20
27.516000
 10
89.650000
 20
27.516000
 10
89.650000
 20
28.516000
 10
88.350000
 20
28.516000
 10
88.350000
 20
27.516000
  0
LWPOLYLINE
  8
0
 62
7
 90
5
 70
1
 10
89.000000
 20
25.484000
 10
89.650000
 20
25.484000
 10
89.650000
 20
26.484000
 10
88.350000
 20
26.484000
 10
88.350000
 20
25.484000
  0
LWPOLYLINE
  8
0
 62
7
 90
5
 70
1
 10
83.000000
 20
29.516000
 10
83.650000
 20
29.516000
 10
83.650000
 20
30.516000
 10
82.350000
 20
30.516000
 10
82.350000
 20
29.516000
  0
LWPOLYLINE
  8
0
 62
7
 90
5
 70
1
 10
83.000000
 20
27.484000
 10
83.650000
 20
27.484000
 10
83.650000
 20
28.484000
 10
82.350000
 20
28.484000
 10
82.350000
 20
27.484000
  0
LWPOLYLINE
  8
0
 62
7
 90
5
 70
1
 10
74.000000
 20
29.516000
 10
74.650000
 20
29.516000
 10
74.650000
 20
30.516000
 10
73.350000
 20
30.516000
 10
73.350000
 20
29.516000
  0
LWPOLYLINE
  8
0
 62
7
 90
5
 70
1
 10
74.000000
 20
27.484000
 10
74.650000
 20
27.484000
 10
74.650000
 20
28.484000
 10
73.350000
 20
28.484000
 10
73.350000
 20
27.484000
  0
LWPOLYLINE
  8
0
 62
7
 90
5
 70
1
 10
34.484000
 20
27.000000
 10
34.484000
 20
27.650000
 10
33.484000
 20
27.650000
 10
33.484000
 20
26.350000
 10
34.484000
 20
26.350000
  0
LWPOLYLINE
  8
0
 62
7
 90
5
 70
1
 10
36.516000
 20
27.000000
 10
36.516000
 20
27.650000
 10
35.516000
 20
27.650000
 10
35.516000
 20
26.350000
 10
36.516000
 20
26.350000
  0
LWPOLYLINE
  8
0
 62
7
 90
5
 70
1
 10
31.000000
 20
28.516000
 10
31.650000
 20
28.516000
 10
31.650000
 20
29.516000
 10
30.350000
 20
29.516000
 10
30.350000
 20
28.516000
  0
LWPOLYLINE
  8
0
 62
7
 90
5
 70
1
 10
31.000000
 20
26.484000
 10
31.650000
 20
26.484000
 10
31.650000
 20
27.484000
 10
30.350000
 20
27.484000
 10
30.350000
 20
26.484000
  0
LWPOLYLINE
  8
0
 62
7
 90
5
 70
1
 10
56.800000
 20
11.242400
 10
56.620600
 20
11.242400
 10
56.620600
 20
10.172400
 10
56.979400
 20
10.172400
 10
56.979400
 20
11.242400
  0
LWPOLYLINE
  8
0
 62
7
 90
5
 70
1
 10
56.000000
 20
11.242400
 10
55.820600
 20
11.242400
 10
55.820600
 20
10.172400
 10
56.179400
 20
10.172400
 10
56.179400
 20
11.242400
  0
LWPOLYLINE
  8
0
 62
7
 90
5
 70
1
 10
55.200000
 20
11.242400
 10
55.020600
 20
11.242400
 10
55.020600
 20
10.172400
 10
55.379400
 20
10.172400
 10
55.379400
 20
11.242400
  0
LWPOLYLINE
  8
0
 62
7
 90
5
 70
1
 10
54.400000
 20
11.242400
 10
54.220600
 20
11.242400
 10
54.220600
 20
10.172400
 10
54.579400
 20
10.172400
 10
54.579400
 20
11.242400
  0
LWPOLYLINE
  8
0
 62
7
 90
5
 70
1
 10
53.600000
 20
11.242400
 10
53.420600
 20
11.242400
 10
53.420600
 20
10.172400
 10
53.779400
 20
10.172400
 10
53.779400
 20
11.242400
  0
LWPOLYLINE
  8
0
 62
7
 90
5
 70
1
 10
52.800000
 20
11.242400
 10
52.620600
 20
11.242400
 10
52.620600
 20
10.172400
 10
52.979400
 20
10.172400
 10
52.979400
 20
11.242400
  0
LWPOLYLINE
  8
0
 62
7
 90
5
 70
1
 10
52.000000
 20
11.242400
 10
51.820600
 20
11.242400
 10
51.820600
 20
10.172400
 10
52.179400
 20
10.172400
 10
52.179400
 20
11.242400
  0
LWPOLYLINE
  8
0
 62
7
 90
5
 70
1
 10
51.200000
 20
11.242400
 10
51.020600
 20
11.242400
 10
51.020600
 20
10.172400
 10
51.379400
 20
10.172400
 10
51.379400
 20
11.242400
  0
LWPOLYLINE
  8
0
 62
7
 90
5
 70
1
 10
49.707400
 20
12.379400
 10
49.172400
 20
12.379400
 10
49.172400
 20
12.020600
 10
50.242400
 20
12.020600
 10
50.242400
 20
12.379400
  0
LWPOLYLINE
  8
0
 62
7
 90
5
 70
1
 10
49.707400
 20
13.179400
 10
49.172400
 20
13.179400
 10
49.172400
 20
12.820600
 10
50.242400
 20
12.820600
 10
50.242400
 20
13.179400
  0
LWPOLYLINE
  8
0
 62
7
 90
5
 70
1
 10
49.707400
 20
13.979400
 10
49.172400
 20
13.979400
 10
49.172400
 20
13.620600
 10
50.242400
 20
13.620600
 10
50.242400
 20
13.979400
  0
LWPOLYLINE
  8
0
 62
7
 90
5
 70
1
 10
49.707400
 20
14.779400
 10
49.172400
 20
14.779400
 10
49.172400
 20
14.420600
 10
50.242400
 20
14.420600
 10
50.242400
 20
14.779400
  0
LWPOLYLINE
  8
0
 62
7
 90
5
 70
1
 10
49.707400
 20
15.579400
 10
49.172400
 20
15.579400
 10
49.172400
 20
15.220600
 10
50.242400
 20
15.220600
 10
50.242400
 20
15.579400
  0
LWPOLYLINE
  8
0
 62
7
 90
5
 70
1
 10
49.707400
 20
16.379400
 10
49.172400
 20
16.379400
 10
49.172400
 20
16.020600
 10
50.242400
 20
16.020600
 10
50.242400
 20
16.379400
  0
LWPOLYLINE
  8
0
 62
7
 90
5
 70
1
 10
49.707400
 20
17.179400
 10
49.172400
 20
17.179400
 10
49.172400
 20
16.820600
 10
50.242400
 20
16.820600
 10
50.242400
 20
17.179400
  0
LWPOLYLINE
  8
0
 62
7
 90
5
 70
1
 10
49.707400
 20
17.979400
 10
49.172400
 20
17.979400
 10
49.172400
 20
17.620600
 10
50.242400
 20
17.620600
 10
50.242400
 20
17.979400
  0
LWPOLYLINE
  8
0
 62
7
 90
5
 70
1
 10
51.200000
 20
19.827600
 10
51.020600
 20
19.827600
 10
51.020600
 20
18.757600
 10
51.379400
 20
18.757600
 10
51.379400
 20
19.827600
  0
LWPOLYLINE
  8
0
 62
7
 90
5
 70
1
 10
52.000000
 20
19.827600
 10
51.820600
 20
19.827600
 10
51.820600
 20
18.757600
 10
52.179400
 20
18.757600
 10
52.179400
 20
19.827600
  0
LWPOLYLINE
  8
0
 62
7
 90
5
 70
1
 10
52.800000
 20
19.827600
 10
52.620600
 20
19.827600
 10
52.620600
 20
18.757600
 10
52.979400
 20
18.757600
 10
52.979400
 20
19.827600
  0
LWPOLYLINE
  8
0
 62
7
 90
5
 70
1
 10
53.600000
 20
19.827600
 10
53.420600
 20
19.827600
 10
53.420600
 20
18.757600
 10
53.779400
 20
18.757600
 10
53.779400
 20
19.827600
  0
LWPOLYLINE
  8
0
 62
7
 90
5
 70
1
 10
54.400000
 20
19.827600
 10
54.220600
 20
19.827600
 10
54.220600
 20
18.757600
 10
54.579400
 20
18.757600
 10
54.579400
 20
19.827600
  0
LWPOLYLINE
  8
0
 62
7
 90
5
 70
1
 10
55.200000
 20
19.827600
 10
55.020600
 20
19.827600
 10
55.020600
 20
18.757600
 10
55.379400
 20
18.757600
 10
55.379400
 20
19.827600
  0
LWPOLYLINE
  8
0
 62
7
 90
5
 70
1
 10
56.000000
 20
19.827600
 10
55.820600
 20
19.827600
 10
55.820600
 20
18.757600
 10
56.179400
 20
18.757600
 10
56.179400
 20
19.827600
  0
LWPOLYLINE
  8
0
 62
7
 90
5
 70
1
 10
56.800000
 20
19.827600
 10
56.620600
 20
19.827600
 10
56.620600
 20
18.757600
 10
56.979400
 20
18.757600
 10
56.979400
 20
19.827600
  0
LWPOLYLINE
  8
0
 62
7
 90
5
 70
1
 10
58.292600
 20
17.979400
 10
57.757600
 20
17.979400
 10
57.757600
 20
17.620600
 10
58.827600
 20
17.620600
 10
58.827600
 20
17.979400
  0
LWPOLYLINE
  8
0
 62
7
 90
5
 70
1
 10
58.292600
 20
17.179400
 10
57.757600
 20
17.179400
 10
57.757600
 20
16.820600
 10
58.827600
 20
16.820600
 10
58.827600
 20
17.179400
  0
LWPOLYLINE
  8
0
 62
7
 90
5
 70
1
 10
58.292600
 20
16.379400
 10
57.757600
 20
16.379400
 10
57.757600
 20
16.020600
 10
58.827600
 20
16.020600
 10
58.827600
 20
16.379400
  0
LWPOLYLINE
  8
0
 62
7
 90
5
 70
1
 10
58.292600
 20
15.579400
 10
57.757600
 20
15.579400
 10
57.757600
 20
15.220600
 10
58.827600
 20
15.220600
 10
58.827600
 20
15.579400
  0
LWPOLYLINE
  8
0
 62
7
 90
5
 70
1
 10
58.292600
 20
14.779400
 10
57.757600
 20
14.779400
 10
57.757600
 20
14.420600
 10
58.827600
 20
14.420600
 10
58.827600
 20
14.779400
  0
LWPOLYLINE
  8
0
 62
7
 90
5
 70
1
 10
58.292600
 20
13.979400
 10
57.757600
 20
13.979400
 10
57.757600
 20
13.620600
 10
58.827600
 20
13.620600
 10
58.827600
 20
13.979400
  0
LWPOLYLINE
  8
0
 62
7
 90
5
 70
1
 10
58.292600
 20
13.179400
 10
57.757600
 20
13.179400
 10
57.757600
 20
12.820600
 10
58.827600
 20
12.820600
 10
58.827600
 20
13.179400
  0
LWPOLYLINE
  8
0
 62
7
 90
5
 70
1
 10
58.292600
 20
12.379400
 10
57.757600
 20
12.379400
 10
57.757600
 20
12.020600
 10
58.827600
 20
12.020600
 10
58.827600
 20
12.379400
  0
LWPOLYLINE
  8
0
 62
7
 90
5
 70
1
 10
55.259000
 20
4.000000
 10
55.259000
 20
3.134800
 10
60.393000
 20
3.134800
 10
60.393000
 20
4.865200
 10
55.259000
 20
4.865200
  0
LWPOLYLINE
  8
0
 62
7
 90
5
 70
1
 10
54.075000
 20
4.000000
 10
54.075000
 20
3.147500
 10
54.325000
 20
3.147500
 10
54.325000
 20
4.852500
 10
54.075000
 20
4.852500
  0
LWPOLYLINE
  8
0
 62
7
 90
5
 70
1
 10
45.607000
 20
4.000000
 10
45.607000
 20
3.134800
 10
50.741000
 20
3.134800
 10
50.741000
 20
4.865200
 10
45.607000
 20
4.865200
  0
LWPOLYLINE
  8
0
 62
7
 90
5
 70
1
 10
51.675000
 20
4.000000
 10
51.675000
 20
3.147500
 10
51.925000
 20
3.147500
 10
51.925000
 20
4.852500
 10
51.675000
 20
4.852500
  0
LWPOLYLINE
  8
0
 62
7
 90
5
 70
1
 10
52.875000
 20
4.000000
 10
52.875000
 20
3.147500
 10
53.125000
 20
3.147500
 10
53.125000
 20
4.852500
 10
52.875000
 20
4.852500
  0
LWPOLYLINE
  8
0
 62
7
 90
5
 70
1
 10
108.015000
 20
13.963100
 10
108.015000
 20
42.941202
 10
-15.944944
 20
42.941202
 10
-15.944944
 20
-15.015002
 10
108.015000
 20
-15.015002
  0
ENDSEC
  0
EOF
