  0
SECTION
  2
HEADER
  9
$ACADVER
  1
AC1009
  9
$MEASUREMENT
 70
     1
  0
ENDSEC
  0
SECTION
  2
ENTITIES
  0
LWPOLYLINE
  8
0
 62
7
 90
5
 70
1
 10
92.600000
 20
20.850000
 10
92.600000
 20
21.450000
 10
91.400000
 20
21.450000
 10
91.400000
 20
20.250000
 10
92.600000
 20
20.250000
  0
LWPOLYLINE
  8
0
 62
7
 90
5
 70
1
 10
92.600000
 20
17.150000
 10
92.600000
 20
17.750000
 10
91.400000
 20
17.750000
 10
91.400000
 20
16.550000
 10
92.600000
 20
16.550000
  0
LWPOLYLINE
  8
0
 62
7
 90
5
 70
1
 10
16.430000
 20
29.770000
 10
16.430000
 20
30.670000
 10
15.030000
 20
30.670000
 10
15.030000
 20
28.870000
 10
16.430000
 20
28.870000
  0
LWPOLYLINE
  8
0
 62
7
 90
5
 70
1
 10
18.970000
 20
29.770000
 10
18.970000
 20
30.670000
 10
17.570000
 20
30.670000
 10
17.570000
 20
28.870000
 10
18.970000
 20
28.870000
  0
LWPOLYLINE
  8
0
 62
7
 90
5
 70
1
 10
17.570000
 20
20.230000
 10
17.570000
 20
19.330000
 10
18.970000
 20
19.330000
 10
18.970000
 20
21.130000
 10
17.570000
 20
21.130000
  0
LWPOLYLINE
  8
0
 62
7
 90
5
 70
1
 10
15.030000
 20
20.230000
 10
15.030000
 20
19.330000
 10
16.430000
 20
19.330000
 10
16.430000
 20
21.130000
 10
15.030000
 20
21.130000
  0
LWPOLYLINE
  8
0
 62
7
 90
5
 70
1
 10
23.355000
 20
23.110000
 10
22.695000
 20
23.110000
 10
22.695000
 20
21.810000
 10
24.015000
 20
21.810000
 10
24.015000
 20
23.110000
  0
LWPOLYLINE
  8
0
 62
7
 90
5
 70
1
 10
23.355000
 20
25.650000
 10
22.695000
 20
25.650000
 10
22.695000
 20
24.350000
 10
24.015000
 20
24.350000
 10
24.015000
 20
25.650000
  0
LWPOLYLINE
  8
0
 62
7
 90
5
 70
1
 10
23.355000
 20
28.190000
 10
22.695000
 20
28.190000
 10
22.695000
 20
26.890000
 10
24.015000
 20
26.890000
 10
24.015000
 20
28.190000
  0
LWPOLYLINE
  8
0
 62
7
 90
5
 70
1
 10
32.645000
 20
26.890000
 10
33.305000
 20
26.890000
 10
33.305000
 20
28.190000
 10
31.985000
 20
28.190000
 10
31.985000
 20
26.890000
  0
LWPOLYLINE
  8
0
 62
7
 90
5
 70
1
 10
32.645000
 20
24.350000
 10
33.305000
 20
24.350000
 10
33.305000
 20
25.650000
 10
31.985000
 20
25.650000
 10
31.985000
 20
24.350000
  0
LWPOLYLINE
  8
0
 62
7
 90
5
 70
1
 10
32.645000
 20
21.810000
 10
33.305000
 20
21.810000
 10
33.305000
 20
23.110000
 10
31.985000
 20
23.110000
 10
31.985000
 20
21.810000
  0
LWPOLYLINE
  8
0
 62
7
 90
5
 70
1
 10
92.900000
 20
10.450000
 10
92.300000
 20
10.450000
 10
92.300000
 20
9.650000
 10
93.500000
 20
9.650000
 10
93.500000
 20
10.450000
  0
LWPOLYLINE
  8
0
 62
7
 90
5
 70
1
 10
92.900000
 20
12.350000
 10
92.300000
 20
12.350000
 10
92.300000
 20
11.550000
 10
93.500000
 20
11.550000
 10
93.500000
 20
12.350000
  0
LWPOLYLINE
  8
0
 62
7
 90
5
 70
1
 10
95.100000
 20
11.400000
 10
94.500000
 20
11.400000
 10
94.500000
 20
10.600000
 10
95.700000
 20
10.600000
 10
95.700000
 20
11.400000
  0
LWPOLYLINE
  8
0
 62
7
 90
5
 70
1
 10
35.400000
 20
44.000000
 10
35.400000
 20
42.750000
 10
37.000000
 20
42.750000
 10
37.000000
 20
45.250000
 10
35.400000
 20
45.250000
  0
LWPOLYLINE
  8
0
 62
7
 90
5
 70
1
 10
31.000000
 20
44.000000
 10
31.000000
 20
42.750000
 10
32.600000
 20
42.750000
 10
32.600000
 20
45.250000
 10
31.000000
 20
45.250000
  0
LWPOLYLINE
  8
0
 62
7
 90
5
 70
1
 10
35.400000
 20
38.000000
 10
35.400000
 20
36.750000
 10
37.000000
 20
36.750000
 10
37.000000
 20
39.250000
 10
35.400000
 20
39.250000
  0
LWPOLYLINE
  8
0
 62
7
 90
5
 70
1
 10
31.000000
 20
38.000000
 10
31.000000
 20
36.750000
 10
32.600000
 20
36.750000
 10
32.600000
 20
39.250000
 10
31.000000
 20
39.250000
  0
LWPOLYLINE
  8
0
 62
7
 90
5
 70
1
 10
27.400000
 20
44.000000
 10
27.400000
 20
42.750000
 10
29.000000
 20
42.750000
 10
29.000000
 20
45.250000
 10
27.400000
 20
45.250000
  0
LWPOLYLINE
  8
0
 62
7
 90
5
 70
1
 10
23.000000
 20
44.000000
 10
23.000000
 20
42.750000
 10
24.600000
 20
42.750000
 10
24.600000
 20
45.250000
 10
23.000000
 20
45.250000
  0
LWPOLYLINE
  8
0
 62
7
 90
5
 70
1
 10
27.400000
 20
38.000000
 10
27.400000
 20
36.750000
 10
29.000000
 20
36.750000
 10
29.000000
 20
39.250000
 10
27.400000
 20
39.250000
  0
LWPOLYLINE
  8
0
 62
7
 90
5
 70
1
 10
23.000000
 20
38.000000
 10
23.000000
 20
36.750000
 10
24.600000
 20
36.750000
 10
24.600000
 20
39.250000
 10
23.000000
 20
39.250000
  0
LWPOLYLINE
  8
0
 62
7
 90
5
 70
1
 10
87.000000
 20
11.484000
 10
86.350000
 20
11.484000
 10
86.350000
 20
10.484000
 10
87.650000
 20
10.484000
 10
87.650000
 20
11.484000
  0
LWPOLYLINE
  8
0
 62
7
 90
5
 70
1
 10
87.000000
 20
13.516000
 10
86.350000
 20
13.516000
 10
86.350000
 20
12.516000
 10
87.650000
 20
12.516000
 10
87.650000
 20
13.516000
  0
LWPOLYLINE
  8
0
 62
7
 90
5
 70
1
 10
90.000000
 20
11.484000
 10
89.350000
 20
11.484000
 10
89.350000
 20
10.484000
 10
90.650000
 20
10.484000
 10
90.650000
 20
11.484000
  0
LWPOLYLINE
  8
0
 62
7
 90
5
 70
1
 10
90.000000
 20
13.516000
 10
89.350000
 20
13.516000
 10
89.350000
 20
12.516000
 10
90.650000
 20
12.516000
 10
90.650000
 20
13.516000
  0
LWPOLYLINE
  8
0
 62
7
 90
5
 70
1
 10
23.000000
 20
15.484000
 10
22.350000
 20
15.484000
 10
22.350000
 20
14.484000
 10
23.650000
 20
14.484000
 10
23.650000
 20
15.484000
  0
LWPOLYLINE
  8
0
 62
7
 90
5
 70
1
 10
23.000000
 20
17.516000
 10
22.350000
 20
17.516000
 10
22.350000
 20
16.516000
 10
23.650000
 20
16.516000
 10
23.650000
 20
17.516000
  0
LWPOLYLINE
  8
0
 62
7
 90
5
 70
1
 10
44.600000
 20
24.000000
 10
44.600000
 20
25.250000
 10
43.000000
 20
25.250000
 10
43.000000
 20
22.750000
 10
44.600000
 20
22.750000
  0
LWPOLYLINE
  8
0
 62
7
 90
5
 70
1
 10
49.000000
 20
24.000000
 10
49.000000
 20
25.250000
 10
47.400000
 20
25.250000
 10
47.400000
 20
22.750000
 10
49.000000
 20
22.750000
  0
LWPOLYLINE
  8
0
 62
7
 90
5
 70
1
 10
44.600000
 20
20.000000
 10
44.600000
 20
21.250000
 10
43.000000
 20
21.250000
 10
43.000000
 20
18.750000
 10
44.600000
 20
18.750000
  0
LWPOLYLINE
  8
0
 62
7
 90
5
 70
1
 10
49.000000
 20
20.000000
 10
49.000000
 20
21.250000
 10
47.400000
 20
21.250000
 10
47.400000
 20
18.750000
 10
49.000000
 20
18.750000
  0
LWPOLYLINE
  8
0
 62
7
 90
5
 70
1
 10
111.014998
 20
33.934100
 10
111.014998
 20
75.203200
 10
-6.945167
 20
75.203200
 10
-6.945167
 20
-7.335000
 10
111.014998
 20
-7.335000
  0
ENDSEC
  0
EOF
